<svg xmlns="http://www.w3.org/2000/svg" version="1.1" xmlns:xlink="http://www.w3.org/1999/xlink" width="20" height="30" x="0" y="0" viewBox="0 0 50 50" style="enable-background:new 0 0 512 512" xml:space="preserve" class=""><g><path d="M45.3 46.6H5.1c-1.8 0-3.4-1.6-3.7-3.9 0-.1 0-.3.1-.4s.2-.2.4-.2h46.5c.1 0 .3.1.4.2s.1.3.1.4c-.2 2.3-1.8 3.9-3.6 3.9zM2.5 43.2c.4 1.4 1.4 2.4 2.6 2.4h40.1c1.2 0 2.2-1 2.6-2.4z" fill="#28395a" opacity="1" data-original="#000000" class=""></path><path d="M12.1 43.2H6.4c-.3 0-.5-.2-.5-.5V19.2c0-1.4 1.1-2.5 2.5-2.5H12c.3 0 .5.2.5.5v25.4c.1.4-.2.6-.4.6zm-5.2-1h4.6V17.8H8.4c-.8 0-1.5.7-1.5 1.5zM43.9 43.2c-.3 0-.5-.2-.5-.5V23.4c0-.3.2-.5.5-.5s.5.2.5.5v19.3c0 .3-.2.5-.5.5zM43 18c-.1 0-.2 0-.3-.1-.2-.1-.5-.2-.8-.2h-3.6c-.3 0-.5-.2-.5-.5s.2-.5.5-.5H42c.4 0 .9.1 1.3.4.2.1.3.4.2.7-.2.2-.3.2-.5.2zM36.9 44.9h-.4c-.3 0-.5-.2-.5-.5s.2-.5.5-.5h.4c.3 0 .5.2.5.5s-.2.5-.5.5zM41.5 44.9h-.4c-.3 0-.5-.2-.5-.5s.2-.5.5-.5h.4c.3 0 .5.2.5.5s-.2.5-.5.5zM39.3 44.9h-.4c-.3 0-.5-.2-.5-.5s.2-.5.5-.5h.4c.3 0 .5.2.5.5s-.3.5-.5.5z" fill="#28395a" opacity="1" data-original="#000000" class=""></path><path d="M38.3 43.2H12.1c-.3 0-.5-.2-.5-.5V6.5c0-1.2-1-2.1-2.1-2.1-.3 0-.5-.2-.5-.5s.2-.5.5-.5h26.3c1.7 0 3.1 1.4 3.1 3.2v21.9c0 .3-.2.5-.5.5s-.5-.2-.5-.5v-22c0-1.2-1-2.2-2.1-2.2H11.7c.5.6.8 1.3.8 2.1v35.7h25.3v-5.6c0-.3.2-.5.5-.5s.5.2.5.5v6.1c0 .4-.2.6-.5.6z" fill="#28395a" opacity="1" data-original="#000000" class=""></path><path d="M12.1 14.5h-8c-.3 0-.5-.2-.5-.5s.2-.5.5-.5c1.2 0 2.1-1 2.1-2.1V6.5c0-1.7 1.4-3.1 3.1-3.1s3.1 1.4 3.1 3.1V14c.2.3-.1.5-.3.5zm-5.7-1h5.1v-7c0-1.2-1-2.1-2.1-2.1-1.2 0-2.1 1-2.1 2.1v4.9c0 .8-.3 1.5-.9 2.1z" fill="#28395a" opacity="1" data-original="#000000" class=""></path><path d="M4.1 14.5c-1.7 0-3.1-1.4-3.1-3.1V8.1c0-.3.2-.5.5-.5h5.3c.3 0 .5.2.5.5v3.2c0 1.8-1.4 3.2-3.2 3.2zM2 8.6v2.7c0 1.2 1 2.1 2.1 2.1s2.1-1 2.1-2.1V8.6zM23.4 16.3h-8.2c-.3 0-.5-.2-.5-.5V7.3c0-.3.2-.5.5-.5h8.2c.3 0 .5.2.5.5v8.6c0 .2-.3.4-.5.4zm-7.7-1h7.2V7.8h-7.2zM35.2 7.9h-8.9c-.3 0-.5-.2-.5-.5s.2-.5.5-.5h8.9c.3 0 .5.2.5.5s-.2.5-.5.5zM35.2 10.7h-8.9c-.3 0-.5-.2-.5-.5s.2-.5.5-.5h8.9c.3 0 .5.2.5.5s-.2.5-.5.5zM35.2 13.5h-8.9c-.3 0-.5-.2-.5-.5s.2-.5.5-.5h8.9c.3 0 .5.2.5.5s-.2.5-.5.5zM35.2 16.3h-8.9c-.3 0-.5-.2-.5-.5s.2-.5.5-.5h8.9c.3 0 .5.2.5.5s-.2.5-.5.5zM35.2 19.2H25c-.3 0-.5-.2-.5-.5s.2-.5.5-.5h10.2c.3 0 .5.2.5.5s-.2.5-.5.5zM35.2 22H25c-.3 0-.5-.2-.5-.5s.3-.5.5-.5h10.2c.3 0 .5.2.5.5s-.2.5-.5.5z" fill="#28395a" opacity="1" data-original="#000000" class=""></path><path d="M25 19.2h-9.9c-.3 0-.5-.2-.5-.5s.2-.5.5-.5H25c.3 0 .5.2.5.5s-.2.5-.5.5zM25 22h-9.9c-.3 0-.5-.2-.5-.5s.2-.5.5-.5H25c.3 0 .5.2.5.5s-.2.5-.5.5zM35.9 38.7c-.2 0-.4-.1-.5-.3l-.8-2.1v-.4l9.8-22.8c.4-1 1.7-1.5 2.7-1.1.5.2.9.6 1.1 1.1s.2 1.1 0 1.6l-9.8 22.8-.3.3-2.1.9zm-.3-2.5.6 1.4 1.4-.6 9.7-22.6c.1-.3.1-.6 0-.8-.1-.3-.3-.5-.6-.6-.5-.2-1.2 0-1.4.6z" fill="#28395a" opacity="1" data-original="#000000" class=""></path><path d="M35.2 40.3H35c-.3-.1-.4-.4-.3-.7l.7-1.6c.1-.3.4-.4.7-.3s.4.4.3.7l-.8 1.6c0 .2-.2.3-.4.3zM46.2 28H46c-.4-.2-.8-.5-1-1s-.2-.9 0-1.4l2.8-6.6c.1-.3.1-.6 0-1-.1-.3-.4-.5-.7-.7l-3.5-1.5c-.3-.1-.4-.4-.3-.7s.4-.4.7-.3l3.5 1.5c.6.2 1 .7 1.2 1.2.2.6.2 1.2 0 1.7L46 26c-.1.2-.1.4 0 .6s.2.4.4.4c.3.1.4.4.3.7-.1.2-.3.3-.5.3zM39.2 35H39l-2.9-1.2c-.3-.1-.4-.4-.3-.7s.4-.4.7-.3l2.9 1.2c.3.1.4.4.3.7-.1.2-.3.3-.5.3zM26.5 39.7c-.2 0-.4-.1-.5-.3-.3-.6-.7-1-1.2-1s-.9.4-1.2 1c-.1.2-.3.3-.6.3-.8-.2-1.6-.5-2.3-1-.2-.1-.3-.4-.2-.6.2-.6.2-1.2-.1-1.5-.3-.2-.6-.3-.8-.3s-.5 0-.7.1-.5 0-.6-.2c-.4-.7-.7-1.5-.9-2.3-.1-.2.1-.5.3-.6.6-.3.9-.7.9-1.1s-.3-.9-.9-1.1c-.2-.1-.3-.3-.3-.6.2-.8.5-1.6.9-2.3.1-.2.4-.3.6-.2s.5.1.7.1.6 0 .8-.3c.3-.3.4-.9.1-1.5-.1-.2 0-.5.2-.6.7-.5 1.5-.8 2.3-1 .2-.1.5.1.6.3.3.6.7 1 1.2 1s1-.4 1.2-1c.1-.2.3-.3.6-.3.8.2 1.6.5 2.3 1 .2.1.3.4.2.6-.2.6-.2 1.2.1 1.5.2.2.6.3.8.3s.5 0 .7-.1.5 0 .6.2c.4.7.8 1.5.9 2.3.1.2-.1.5-.3.6-.6.3-.9.7-.9 1.1s.3.9.9 1.1c.2.1.3.3.3.6-.2.8-.5 1.6-.9 2.3-.1.2-.4.3-.6.2s-.5-.1-.7-.1-.6.1-.8.3c-.3.3-.4.9-.1 1.5.1.2 0 .5-.2.6-.7.5-1.5.8-2.3 1h-.1zm-4.9-1.6c.4.2.9.4 1.3.5.5-.8 1.2-1.2 1.9-1.2.8 0 1.5.5 1.9 1.2.5-.1.9-.3 1.3-.5-.2-.8 0-1.6.5-2.2.5-.5 1.3-.7 2.1-.5.2-.4.4-.8.5-1.3-.7-.5-1.1-1.1-1.1-1.9 0-.7.4-1.4 1.1-1.8-.1-.4-.3-.9-.5-1.3-.8.2-1.6 0-2.1-.5-.5-.6-.7-1.4-.5-2.2-.4-.2-.8-.4-1.3-.5-.5.8-1.2 1.2-1.9 1.2-.8 0-1.5-.5-1.9-1.2-.5.1-.9.3-1.3.5.2.9 0 1.6-.5 2.2-.5.5-1.3.7-2.2.5-.2.4-.4.8-.5 1.3.7.4 1.1 1.1 1.1 1.9 0 .7-.4 1.4-1.1 1.9.1.4.3.9.5 1.3.8-.2 1.6 0 2.2.5.5.4.7 1.2.5 2.1z" fill="#28395a" opacity="1" data-original="#000000" class=""></path><path d="M24.8 35.9c-2 0-3.7-1.6-3.7-3.7 0-2 1.6-3.7 3.7-3.7s3.7 1.6 3.7 3.7c0 2-1.7 3.7-3.7 3.7zm0-6.3c-1.5 0-2.7 1.2-2.7 2.7s1.2 2.7 2.7 2.7 2.7-1.2 2.7-2.7-1.2-2.7-2.7-2.7z" fill="#28395a" opacity="1" data-original="#000000" class=""></path></g></svg>