<svg xmlns="http://www.w3.org/2000/svg" version="1.1" xmlns:xlink="http://www.w3.org/1999/xlink" width="20" height="30" x="0" y="0" viewBox="0 0 496 496" style="enable-background:new 0 0 512 512" xml:space="preserve" class=""><g><path d="M416 224h33.473c3.312 9.29 12.113 16 22.527 16 13.23 0 24-10.77 24-24s-10.77-24-24-24c-10.414 0-19.215 6.71-22.527 16H416v-20.688L443.313 160h6.16c3.312 9.29 12.113 16 22.527 16 13.23 0 24-10.77 24-24s-10.77-24-24-24c-10.414 0-19.215 6.71-22.527 16H440c-2.121 0-4.16.84-5.656 2.344L416 164.688V120c0-22.055-17.945-40-40-40h-44.688l18.344-18.344A7.964 7.964 0 0 0 352 56v-9.473c9.29-3.312 16-12.113 16-22.527 0-13.23-10.77-24-24-24s-24 10.77-24 24c0 10.414 6.71 19.215 16 22.527v6.16l-21.656 21.657A7.964 7.964 0 0 0 312 80h-24V62.527c9.29-3.312 16-12.113 16-22.527 0-13.23-10.77-24-24-24s-24 10.77-24 24c0 10.414 6.71 19.215 16 22.527V80h-48V46.527c9.29-3.312 16-12.113 16-22.527 0-13.23-10.77-24-24-24s-24 10.77-24 24c0 10.414 6.71 19.215 16 22.527V80h-20.688L160 52.687v-6.16c9.29-3.312 16-12.113 16-22.527 0-13.23-10.77-24-24-24s-24 10.77-24 24c0 10.414 6.71 19.215 16 22.527V56c0 2.129.84 4.16 2.344 5.656L164.688 80H120c-22.055 0-40 17.945-40 40v44.688l-18.344-18.344A7.978 7.978 0 0 0 56 144h-9.473c-3.312-9.29-12.113-16-22.527-16-13.23 0-24 10.77-24 24s10.77 24 24 24c10.414 0 19.215-6.71 22.527-16h6.16L80 187.313V208H46.527c-3.312-9.29-12.113-16-22.527-16-13.23 0-24 10.77-24 24s10.77 24 24 24c10.414 0 19.215-6.71 22.527-16H80v48H62.527c-3.312-9.29-12.113-16-22.527-16-13.23 0-24 10.77-24 24s10.77 24 24 24c10.414 0 19.215-6.71 22.527-16H80v24c-2.121 0-4.16.84-5.656 2.344L52.688 336h-6.16c-3.313-9.29-12.114-16-22.528-16-13.23 0-24 10.77-24 24s10.77 24 24 24c10.414 0 19.215-6.71 22.527-16H56c2.121 0 4.16-.84 5.656-2.344L80 331.312V376c0 22.055 17.945 40 40 40h40v-16h-40c-13.23 0-24-10.77-24-24V120c0-13.23 10.77-24 24-24h256c13.23 0 24 10.77 24 24v256c0 13.23-10.77 24-24 24h-40v16h40c22.055 0 40-17.945 40-40v-44.688l18.344 18.344A7.978 7.978 0 0 0 440 352h9.473c3.312 9.29 12.113 16 22.527 16 13.23 0 24-10.77 24-24s-10.77-24-24-24c-10.414 0-19.215 6.71-22.527 16h-6.16l-21.657-21.656A7.978 7.978 0 0 0 416 312v-24h17.473c3.312 9.29 12.113 16 22.527 16 13.23 0 24-10.77 24-24s-10.77-24-24-24c-10.414 0-19.215 6.71-22.527 16H416zm56-16c4.406 0 8 3.586 8 8s-3.594 8-8 8-8-3.586-8-8 3.594-8 8-8zm0-64c4.406 0 8 3.586 8 8s-3.594 8-8 8-8-3.586-8-8 3.594-8 8-8zM344 16c4.406 0 8 3.586 8 8s-3.594 8-8 8-8-3.586-8-8 3.594-8 8-8zm-64 16c4.406 0 8 3.586 8 8s-3.594 8-8 8-8-3.586-8-8 3.594-8 8-8zm-64-16c4.406 0 8 3.586 8 8s-3.594 8-8 8-8-3.586-8-8 3.594-8 8-8zm-64 0c4.406 0 8 3.586 8 8s-3.594 8-8 8-8-3.586-8-8 3.594-8 8-8zM24 160c-4.406 0-8-3.586-8-8s3.594-8 8-8 8 3.586 8 8-3.594 8-8 8zm0 64c-4.406 0-8-3.586-8-8s3.594-8 8-8 8 3.586 8 8-3.594 8-8 8zm16 64c-4.406 0-8-3.586-8-8s3.594-8 8-8 8 3.586 8 8-3.594 8-8 8zm-16 64c-4.406 0-8-3.586-8-8s3.594-8 8-8 8 3.586 8 8-3.594 8-8 8zm448-16c4.406 0 8 3.586 8 8s-3.594 8-8 8-8-3.586-8-8 3.594-8 8-8zm-16-64c4.406 0 8 3.586 8 8s-3.594 8-8 8-8-3.586-8-8 3.594-8 8-8zm0 0" fill="#28395a" opacity="1" data-original="#000000" class=""></path><path d="M304 371.063C347.91 349.68 376 305.09 376 256c0-70.574-57.426-128-128-128s-128 57.426-128 128c0 49.09 28.09 93.68 72 115.063V384h-16v16h16v16h-16v16h16v24c0 4.426 3.586 8 8 8h8.809c3.718 18.23 19.87 32 39.191 32s35.473-13.77 39.191-32H296c4.414 0 8-3.574 8-8v-24h16v-16h-16v-16h16v-16h-16zm-100.8-12.446c-33.313-14.57-56.993-44.082-64.583-78.617h30.856c3.312 9.29 12.113 16 22.527 16 13.23 0 24-10.77 24-24s-10.77-24-24-24c-10.414 0-19.215 6.71-22.527 16h-33.176a110.882 110.882 0 0 1-.297-8c0-4.61.367-9.129.91-13.602L163.313 216h22.16c3.312 9.29 12.113 16 22.527 16 13.23 0 24-10.77 24-24s-10.77-24-24-24c-10.414 0-19.215 6.71-22.527 16H160c-2.121 0-4.16.84-5.656 2.344l-8.992 8.992C162.64 171.762 202.122 144 248 144s85.36 27.762 102.648 67.336l-8.992-8.992A7.978 7.978 0 0 0 336 200h-25.473c-3.312-9.29-12.113-16-22.527-16-13.23 0-24 10.77-24 24s10.77 24 24 24c10.414 0 19.215-6.71 22.527-16h22.16l26.403 26.398c.543 4.473.91 8.993.91 13.602 0 2.688-.105 5.352-.297 8h-33.176c-3.312-9.29-12.113-16-22.527-16-13.23 0-24 10.77-24 24s10.77 24 24 24c10.414 0 19.215-6.71 22.527-16h30.856c-7.59 34.535-31.27 64.047-64.582 78.617a8 8 0 0 0-4.801 7.328V384h-32v-49.473c9.29-3.312 16-12.113 16-22.527 0-13.23-10.77-24-24-24s-24 10.77-24 24c0 10.414 6.71 19.215 16 22.527V384h-32v-18.055a7.987 7.987 0 0 0-4.8-7.328zM184 272c0-4.414 3.594-8 8-8s8 3.586 8 8-3.594 8-8 8-8-3.586-8-8zm16-64c0-4.414 3.594-8 8-8s8 3.586 8 8-3.594 8-8 8-8-3.586-8-8zm96 0c0 4.414-3.594 8-8 8s-8-3.586-8-8 3.594-8 8-8 8 3.586 8 8zm16 64c0 4.414-3.594 8-8 8s-8-3.586-8-8 3.594-8 8-8 8 3.586 8 8zm-72 40c0-4.414 3.594-8 8-8s8 3.586 8 8-3.594 8-8 8-8-3.586-8-8zm8 168c-10.414 0-19.215-6.71-22.527-16h45.047c-3.305 9.29-12.106 16-22.52 16zm40-32h-80v-16h80zm0-32h-80v-16h80zm0 0" fill="#28395a" opacity="1" data-original="#000000" class=""></path></g></svg>