<svg xmlns="http://www.w3.org/2000/svg" version="1.1" xmlns:xlink="http://www.w3.org/1999/xlink" width="20" height="30" x="0" y="0" viewBox="0 0 570.501 570.501" style="enable-background:new 0 0 512 512" xml:space="preserve" class=""><g><path fill-rule="evenodd" d="M329.678 144.96c-2.54 0-4.984-1.038-6.805-2.956-1.518-1.598-2.46-3.482-4.186-6.902-3.035-6.038-8.69-17.301-20.384-32.11-4.84-6.134-6.789-8.227-8.163-9.584-1.07-1.054-3.802-3.61-7.732-6.502-2.971 3.499-6.374 6.454-10.176 8.818-11.295 7.045-22.397 6.773-31.327 6.566l-.623-.016c-.272 0-27.525-.623-56.615 1.39-20.592 1.422-26.63 3.929-31.039 6.358-4.01 2.22-11.47 6.342-14.905 13.978-1.486 3.291-1.917 6.517-2.284 9.105-.192 1.438-.368 2.684-.703 3.929-1.454 5.336-5.544 7.54-8.882 7.811-2.013.176-7.045-.112-10.463-6.374-.862-1.581-1.694-3.642-2.46-6.102-1.406-4.473-2.54-10.065-3.115-15.352-2.156-19.57 3.035-35.608 6.31-43.42 2.124-5.064 8.515-18.227 21.869-31.151 23.131-22.349 50.768-28.084 69.06-31.886 15.256-3.163 25.927-3.626 39.346-3.929 10.448-.24 22.796.208 35.288 5.383 6.39 2.635 11.055 5.783 14.697 9.905 2.78 3.163 3.897 5.64 5.191 8.499.671 1.47 1.422 3.147 2.635 5.479 3.035 5.767 4.872 9.265 7.907 12.412 1.373 1.422 1.901 1.726 3.85 2.875 2.077 1.23 4.92 2.892 9.649 6.438 5.815 4.361 9.665 7.253 13.819 12.253 2.652 3.211 8.195 9.888 10.384 19.809 1.406 6.326.751 11.31-.336 19.57-.703 5.336-4.314 15.128-5.415 17.988-4.665 12.253-7.029 15.799-11.47 17.237a9.108 9.108 0 0 1-2.922.481zM280.22 65.997c4.425 0 8.259 2.684 10.687 4.378l.255.176c5.799 4.025 9.92 7.811 11.853 9.713 2.092 2.045 4.553 4.761 9.745 11.327 7.285 9.233 12.444 17.205 16.15 23.595 1.214-3.531 2.156-6.725 2.364-8.323.99-7.62 1.278-10.176.607-13.211-1.23-5.576-4.457-9.457-6.581-12.029-2.764-3.339-5.415-5.319-10.687-9.282-3.897-2.924-6.134-4.25-7.939-5.304-2.396-1.406-4.649-2.731-7.764-5.974-4.857-5.032-7.54-10.144-10.943-16.614-1.486-2.828-2.428-4.936-3.131-6.47-1.07-2.364-1.294-2.843-2.22-3.897-1.166-1.326-3.115-3.084-7.924-5.08-9.313-3.85-18.882-4.186-27.845-3.993-12.828.287-22.269.703-36.024 3.546-17.189 3.563-40.72 8.451-60.017 27.109-11.214 10.847-16.39 21.901-17.7 25.033-2.077 4.936-5.096 13.994-5.368 25.32a45.913 45.913 0 0 1 5.144-4.952c4.201-3.482 8.355-5.783 10.847-7.157 7.779-4.314 16.614-7.093 38.676-8.626 29.984-2.077 57.19-1.454 58.325-1.422l.639.016c7.46.176 14.521.351 21.119-3.77 3.45-2.156 6.406-5.223 8.771-9.122a10.23 10.23 0 0 1 6.677-4.761 11.06 11.06 0 0 1 2.284-.226z" clip-rule="evenodd" fill="#28395a" opacity="1" data-original="#000000" class=""></path><path fill-rule="evenodd" d="M230.107 298.16a96.004 96.004 0 0 1-20.783-2.269c-6.741-1.486-24.297-6.47-41.535-20.592-8.259-6.773-23.419-21.71-32.03-45.672-2.348-6.534-3.882-13.562-4.761-18.371-6.023-2.7-11.55-6.773-16.231-11.997-5.974-6.677-10.144-14.76-12.045-23.371-3.866-17.508 2.077-34.698 16.31-47.126 3.834-3.339 9.649-2.956 12.987.879 3.339 3.834 2.956 9.649-.879 12.987-12.349 10.783-11.853 22.988-10.448 29.298 2.492 11.278 10.974 20.832 21.103 23.771a9.185 9.185 0 0 1 6.549 7.604c.703 5.16 2.348 13.53 4.729 20.128 7.381 20.543 20.911 33.18 26.374 37.669 14.17 11.598 28.388 15.656 33.835 16.869 15.528 3.418 28.324 1.166 33.116.032 13.068-3.084 21.869-9.154 25.64-11.742 2.716-1.869 9.809-7.141 17.029-15.688 10.431-12.349 18.116-29.139 22.269-48.58a9.202 9.202 0 0 1 7.477-7.157c4.057-.687 8.483-4.186 12.125-9.584 3.961-5.895 6.534-13.307 7.045-20.32.543-7.508-.958-17.157-11.246-20.464-4.84-1.55-7.492-6.741-5.942-11.582 1.55-4.84 6.741-7.492 11.582-5.942 8.722 2.812 15.511 8.387 19.617 16.15 3.467 6.534 4.968 14.537 4.346 23.148-.735 10.112-4.425 20.783-10.128 29.266-5.032 7.477-11.31 12.876-18.099 15.671-5.032 20.368-13.419 37.589-24.969 51.263-8.339 9.873-16.518 16.118-20.656 18.962-4.218 2.892-15.416 10.607-31.838 14.489-4.425 1.024-11.597 2.271-20.543 2.271z" clip-rule="evenodd" fill="#28395a" opacity="1" data-original="#000000" class=""></path><path fill-rule="evenodd" d="M175.073 333.416a9.192 9.192 0 0 1-4.089-.958c-4.553-2.252-6.422-7.779-4.154-12.332 2.828-5.703 7.62-17.141 7.956-29.714.128-4.936-.511-7.189-1.566-10.943a202.986 202.986 0 0 1-.943-3.418c-1.262-4.92 1.709-9.937 6.63-11.199 4.92-1.262 9.937 1.709 11.199 6.63.272 1.022.543 2.013.815 2.971 1.214 4.282 2.476 8.707 2.269 16.438-.415 16.103-6.358 30.352-9.856 37.397a9.203 9.203 0 0 1-8.261 5.128zM286.594 339.454a9.205 9.205 0 0 1-7.892-4.457c-6.07-10.096-13.403-25.943-13.883-44.091-.208-7.748 1.054-12.172 2.269-16.438.272-.958.543-1.933.815-2.971 1.262-4.92 6.278-7.892 11.199-6.63s7.892 6.278 6.63 11.199c-.319 1.246-.655 2.396-.943 3.418-1.054 3.738-1.709 6.006-1.566 10.943.368 14.154 6.326 26.902 11.246 35.097 2.62 4.361 1.214 10.016-3.147 12.621a9.266 9.266 0 0 1-4.728 1.309z" clip-rule="evenodd" fill="#28395a" opacity="1" data-original="#000000" class=""></path><path fill-rule="evenodd" d="M460.336 563.917H9.205c-5.064 0-9.186-4.106-9.201-9.169-.096-32.078 1.374-112.255 17.365-163.822 4.25-13.675 9.393-24.841 16.182-35.129 5.703-8.626 22.158-30.32 51.551-45.257 26.934-13.706 52.702-15.735 69.571-15.032a9.165 9.165 0 0 1 5.911 2.492l72.255 67.845 76.248-67.989a9.19 9.19 0 0 1 5.751-2.333c16.869-.703 42.621 1.341 69.571 15.032 29.394 14.952 45.848 36.631 51.551 45.257 6.805 10.288 11.949 21.439 16.182 35.129 7.349 23.659 12.461 56.024 15.208 96.152 1.486 21.662 2.237 45.049 2.156 67.654.016 5.081-4.105 9.17-9.17 9.17zm-226.124-18.402h216.907c-.128-19.266-.847-38.851-2.109-57.158-2.652-38.723-7.509-69.667-14.426-91.968-3.77-12.125-8.067-21.518-13.962-30.433-4.904-7.413-19.058-26.055-44.554-39.01-21.726-11.055-42.605-13.371-57.222-13.147l-80.034 71.359a9.223 9.223 0 0 1-12.429-.16l-75.833-71.216c-14.601-.192-35.416 2.124-57.095 13.147-25.496 12.955-39.649 31.598-44.554 39.01-5.895 8.914-10.192 18.291-13.962 30.416-6.917 22.301-11.774 53.245-14.426 91.968-1.262 18.308-1.981 37.893-2.109 57.158z" clip-rule="evenodd" fill="#28395a" opacity="1" data-original="#000000" class=""></path><path fill-rule="evenodd" d="M96.524 563.917c-5.08 0-9.201-4.122-9.201-9.201V448.595c0-5.08 4.122-9.201 9.201-9.201s9.201 4.121 9.201 9.201v106.121c.002 5.08-4.12 9.201-9.201 9.201zM380.43 563.917c-5.08 0-9.201-4.122-9.201-9.201V448.595c0-5.08 4.121-9.201 9.201-9.201s9.201 4.121 9.201 9.201v106.121c.001 5.08-4.121 9.201-9.201 9.201zM417.444 298.383c-5.08 0-9.201-4.121-9.201-9.201V28.232c0-5.08 4.121-9.201 9.201-9.201s9.201 4.122 9.201 9.201v260.95c.001 5.079-4.121 9.201-9.201 9.201z" clip-rule="evenodd" fill="#28395a" opacity="1" data-original="#000000" class=""></path><path fill-rule="evenodd" d="M561.298 171.015H417.444c-5.08 0-9.201-4.121-9.201-9.201V50.884a9.203 9.203 0 0 1 14.825-7.284l143.854 110.929a9.194 9.194 0 0 1 3.084 10.256 9.203 9.203 0 0 1-8.708 6.23zm-134.652-18.403H534.3L426.646 69.607zM280.284 530.626h-95.722c-5.08 0-9.201-4.122-9.201-9.201V408.786c0-5.08 4.121-9.201 9.201-9.201h95.722c5.08 0 9.201 4.121 9.201 9.201v112.639a9.183 9.183 0 0 1-9.201 9.201zm-86.504-18.403h77.318v-94.236H193.78z" clip-rule="evenodd" fill="#28395a" opacity="1" data-original="#000000" class=""></path><path fill-rule="evenodd" d="M249.181 447.126h-33.5c-5.08 0-9.201-4.121-9.201-9.201s4.121-9.201 9.201-9.201h33.5c5.08 0 9.201 4.121 9.201 9.201s-4.121 9.201-9.201 9.201zM249.181 474.314h-33.5c-5.08 0-9.201-4.121-9.201-9.201s4.121-9.201 9.201-9.201h33.5c5.08 0 9.201 4.121 9.201 9.201s-4.121 9.201-9.201 9.201zM249.181 501.504h-33.5c-5.08 0-9.201-4.121-9.201-9.201s4.121-9.201 9.201-9.201h33.5c5.08 0 9.201 4.121 9.201 9.201s-4.121 9.201-9.201 9.201zM184.578 417.987a9.207 9.207 0 0 1-7.907-4.473l-61.024-101.777a9.19 9.19 0 0 1 3.163-12.621 9.19 9.19 0 0 1 12.621 3.163l61.024 101.776a9.19 9.19 0 0 1-3.163 12.621 9.021 9.021 0 0 1-4.714 1.311zM280.284 417.987a9.128 9.128 0 0 1-4.729-1.309 9.206 9.206 0 0 1-3.163-12.621l61.024-101.776a9.206 9.206 0 0 1 12.621-3.163 9.206 9.206 0 0 1 3.163 12.621l-61.024 101.776c-1.71 2.874-4.761 4.472-7.892 4.472z" clip-rule="evenodd" fill="#28395a" opacity="1" data-original="#000000" class=""></path></g></svg>